<?xml version="1.0" standalone="no"?>
<!DOCTYPE svg PUBLIC "-//W3C//DTD SVG 20010904//EN"
 "http://www.w3.org/TR/2001/REC-SVG-20010904/DTD/svg10.dtd">
<svg version="1.0" xmlns="http://www.w3.org/2000/svg"
 width="3882.000000pt" height="1059.000000pt" viewBox="0 0 3882.000000 1059.000000"
 preserveAspectRatio="xMidYMid meet">

<g transform="translate(0.000000,1059.000000) scale(0.100000,-0.100000)"
fill="#000000" stroke="none">
<path d="M16125 9574 c-153 -25 -262 -80 -370 -189 -88 -88 -130 -157 -166
-275 -20 -62 -24 -96 -23 -200 0 -109 4 -135 28 -204 99 -287 377 -469 675
-441 336 31 582 287 598 620 9 191 -50 355 -177 489 -119 125 -266 192 -442
200 -51 2 -106 2 -123 0z"/>
<path d="M2235 9113 c-196 -5 -584 -24 -865 -43 -157 -11 -288 -20 -292 -20
-5 0 -8 -1091 -8 -2425 l0 -2425 23 0 c12 0 159 -9 327 -20 1015 -64 1871 -14
2391 141 297 88 514 207 677 370 200 199 295 426 322 771 31 388 -75 700 -325
953 -160 162 -311 257 -540 340 -49 18 -91 37 -92 42 -2 6 18 18 44 28 407
153 688 485 749 888 29 188 1 453 -68 630 -61 158 -220 351 -377 456 -364 246
-955 340 -1966 314z m772 -952 c112 -23 225 -76 282 -132 161 -156 154 -497
-15 -662 -65 -64 -184 -122 -304 -148 -80 -18 -141 -22 -382 -26 l-288 -5 0
485 0 485 63 6 c113 11 150 12 352 14 162 1 217 -2 292 -17z m30 -1929 c110
-29 194 -65 273 -117 138 -92 200 -226 200 -430 0 -263 -113 -424 -357 -510
-148 -51 -198 -57 -535 -62 l-318 -5 0 577 0 577 328 -5 c293 -3 335 -6 409
-25z"/>
<path d="M9670 7813 c-260 -15 -536 -90 -740 -200 -467 -251 -760 -658 -874
-1213 -40 -196 -49 -326 -43 -579 10 -364 62 -601 188 -854 72 -146 140 -239
269 -368 310 -311 704 -459 1290 -485 333 -14 839 39 1150 122 113 30 271 83
284 94 5 5 -14 191 -44 432 l-53 424 -122 -37 c-362 -109 -839 -157 -1134
-113 -334 49 -542 203 -606 450 -8 32 -15 71 -15 86 l0 28 1059 0 c1001 0
1060 1 1065 18 14 48 37 234 46 375 38 577 -123 1090 -445 1412 -310 309 -721
441 -1275 408z m239 -854 c208 -48 341 -229 341 -465 l0 -64 -510 0 c-280 0
-510 3 -510 8 1 29 35 143 60 198 78 172 191 278 343 319 61 16 213 19 276 4z"/>
<path d="M7335 7795 c-203 -37 -394 -142 -561 -309 -83 -84 -168 -196 -210
-278 -26 -51 -39 -59 -48 -30 -2 9 -26 146 -52 304 l-47 287 -71 -4 c-39 -3
-273 -10 -521 -16 -247 -6 -452 -13 -454 -15 -2 -2 1 -232 8 -511 6 -279 11
-1076 11 -1770 l0 -1263 615 0 615 0 0 1128 0 1127 50 67 c146 194 403 292
671 258 82 -10 281 -56 332 -75 16 -7 17 23 17 548 l0 554 -46 7 c-74 10 -233
5 -309 -9z"/>
<path d="M16315 7754 c-258 -6 -525 -12 -592 -13 l-123 -1 0 -1775 0 -1775
615 0 615 0 0 1790 0 1790 -22 -2 c-13 0 -234 -7 -493 -14z"/>
<path d="M11615 7583 c48 -145 1129 -3286 1155 -3360 l12 -33 637 0 636 0 608
1768 c334 972 607 1770 607 1775 0 4 -295 7 -655 7 l-654 0 -10 -37 c-5 -21
-125 -553 -266 -1183 -141 -630 -260 -1149 -264 -1153 -5 -5 -18 31 -29 80
-35 149 -512 2282 -512 2288 0 3 -297 5 -659 5 l-660 0 54 -157z"/>
</g>
</svg>
