<svg width="15" height="15" viewBox="0 0 15 15" fill="none" xmlns="http://www.w3.org/2000/svg">
<g clip-path="url(#clip0_6161_9911)">
<path d="M0.732559 15.0001C0.58768 15.0001 0.446047 14.9572 0.325576 14.8767C0.205104 14.7962 0.111207 14.6818 0.0557603 14.548C0.000313745 14.4141 -0.0141909 14.2668 0.0140811 14.1247C0.042353 13.9827 0.112131 13.8521 0.21459 13.7497L13.7497 0.21455C13.8871 0.0771758 14.0734 0 14.2677 0C14.462 0 14.6483 0.0771758 14.7857 0.21455C14.9231 0.351924 15.0002 0.538242 15.0002 0.732518C15.0002 0.926794 14.9231 1.11311 14.7857 1.25049L1.25053 14.7856C1.18257 14.8537 1.10183 14.9077 1.01294 14.9445C0.924049 14.9813 0.828765 15.0002 0.732559 15.0001Z" fill="#B7BDC5"/>
<path d="M14.2687 15.0001C14.1724 15.0002 14.0772 14.9813 13.9883 14.9445C13.8994 14.9077 13.8186 14.8537 13.7507 14.7856L0.215526 1.25049C0.0781524 1.11311 0.000976563 0.926794 0.000976562 0.732518C0.000976563 0.538242 0.0781524 0.351924 0.215526 0.21455C0.3529 0.0771758 0.539219 0 0.733495 0C0.927771 0 1.11409 0.0771758 1.25146 0.21455L14.7866 13.7497C14.8891 13.8521 14.9589 13.9827 14.9871 14.1247C15.0154 14.2668 15.0009 14.4141 14.9454 14.548C14.89 14.6818 14.7961 14.7962 14.6756 14.8767C14.5552 14.9572 14.4135 15.0001 14.2687 15.0001Z" fill="#B7BDC5"/>
</g>
<defs>
<clipPath id="clip0_6161_9911">
<rect width="15" height="15" fill="white"/>
</clipPath>
</defs>
</svg>
