<svg width="10" height="18" viewBox="0 0 10 18" fill="none" xmlns="http://www.w3.org/2000/svg">
<path d="M8.86076 9.9669L2.57878 17.5053C2.47303 17.6322 2.34749 17.7328 2.20933 17.8015C2.07117 17.8702 1.92309 17.9055 1.77354 17.9055C1.62399 17.9055 1.47591 17.8702 1.33775 17.8015C1.19959 17.7328 1.07405 17.6322 0.968305 17.5053C0.86256 17.3784 0.778678 17.2277 0.721449 17.0619C0.664221 16.8961 0.634766 16.7184 0.634766 16.539C0.634766 16.3595 0.664221 16.1818 0.721449 16.016C0.778678 15.8502 0.86256 15.6996 0.968305 15.5727L6.43934 9.00061L0.968305 2.42852C0.754744 2.17224 0.634766 1.82466 0.634766 1.46223C0.634766 1.09981 0.754744 0.752225 0.968305 0.495951C1.18187 0.239677 1.47152 0.0957031 1.77354 0.0957031C2.07556 0.0957031 2.36521 0.239677 2.57878 0.495951L8.86076 8.03433C8.96788 8.16029 9.05299 8.31063 9.11109 8.47655C9.16919 8.64247 9.19912 8.82064 9.19912 9.00061C9.19912 9.18059 9.16919 9.35875 9.11109 9.52468C9.05299 9.6906 8.96788 9.84094 8.86076 9.9669Z" fill="#43A2FF"/>
</svg>
