<svg width="18" height="18" viewBox="0 0 18 18" fill="none" xmlns="http://www.w3.org/2000/svg">
<g clip-path="url(#clip0_3310_7480)">
<path d="M17.6742 15.2063V6.05165C17.6757 5.98945 17.6513 5.92948 17.6066 5.88621C17.5621 5.84294 17.5015 5.82019 17.4394 5.82353H13.7647V3.42559C13.7625 3.3618 13.7359 3.30119 13.6904 3.25633L10.629 0.0744492C10.5816 0.0265667 10.517 -0.000158372 10.4497 7.06116e-07H0.560608C0.496976 0.000159784 0.43605 0.0260895 0.391667 0.071904C0.347443 0.117718 0.32374 0.1796 0.325808 0.243231V17.7568C0.32374 17.8204 0.347443 17.8823 0.391667 17.9281C0.43605 17.9739 0.496976 17.9998 0.560608 18H13.5081C13.6453 18.0014 13.7588 17.8939 13.7647 17.7568V15.4344H17.4394C17.5015 15.4377 17.5621 15.415 17.6066 15.3717C17.6513 15.3284 17.6757 15.2685 17.6742 15.2063ZM10.7104 0.850114L12.9345 3.17647H10.7104V0.850114ZM13.276 17.5113H0.814496V0.488688H10.2217V3.42559C10.2182 3.48826 10.2407 3.54935 10.2839 3.59485C10.327 3.64018 10.3872 3.66564 10.4497 3.66516H13.276V5.82353H5.36445C5.30257 5.82019 5.24212 5.8431 5.19773 5.88637C5.15351 5.92964 5.12933 5.98961 5.13124 6.05165V15.2063C5.12933 15.2683 5.15351 15.3283 5.19773 15.3716C5.24212 15.415 5.30257 15.4377 5.36445 15.4344H13.276V17.5113ZM17.1855 14.9457H5.61993V6.31222H17.1855V14.9457Z" fill="white" fill-opacity="0.7"/>
<path d="M11.1062 9.20352H13.1673C13.3022 9.20352 13.4117 9.09408 13.4117 8.95918C13.4117 8.82429 13.3022 8.71484 13.1673 8.71484H11.1062C10.9713 8.71484 10.8618 8.82429 10.8618 8.95918C10.8618 9.09408 10.9713 9.20352 11.1062 9.20352Z" fill="white" fill-opacity="0.7"/>
<path d="M11.1062 11.0767H15.0174C15.1525 11.0767 15.2618 10.9673 15.2618 10.8324C15.2618 10.6975 15.1525 10.588 15.0174 10.588H11.1062C10.9713 10.588 10.8618 10.6975 10.8618 10.8324C10.8618 10.9673 10.9713 11.0767 11.1062 11.0767Z" fill="white" fill-opacity="0.7"/>
<path d="M11.1062 12.9911H15.0174C15.1525 12.9911 15.2618 12.8817 15.2618 12.7468C15.2618 12.6119 15.1525 12.5024 15.0174 12.5024H11.1062C10.9713 12.5024 10.8618 12.6119 10.8618 12.7468C10.8618 12.8817 10.9713 12.9911 11.1062 12.9911Z" fill="white" fill-opacity="0.7"/>
<path d="M6.95508 10.2623C6.95508 10.3972 7.06452 10.5066 7.19942 10.5066H8.6553C8.5519 10.8324 8.25029 11.036 7.89507 11.036H7.19942C7.09809 11.0403 7.00901 11.1044 6.97258 11.1991C6.93615 11.2937 6.95937 11.401 7.03159 11.4721L8.77048 13.1176C8.81725 13.1624 8.88008 13.1869 8.94499 13.1854C9.00973 13.1838 9.07129 13.1566 9.11599 13.1095C9.20858 13.0078 9.20428 12.8511 9.10613 12.7549L7.81378 11.5247H7.89523C8.50386 11.5257 9.03057 11.1016 9.1591 10.5066H9.63077C9.76567 10.5066 9.87511 10.3972 9.87511 10.2623C9.87511 10.1274 9.76567 10.0179 9.63077 10.0179H9.1591C9.1187 9.81097 9.03136 9.61594 8.90378 9.4478H9.63077C9.76567 9.4478 9.87511 9.33835 9.87511 9.20345C9.87511 9.06855 9.76567 8.95911 9.63077 8.95911H7.19958C7.06452 8.95911 6.95524 9.06855 6.95524 9.20345C6.95524 9.33835 7.06452 9.4478 7.19958 9.4478H7.89523C8.24536 9.45305 8.55238 9.68323 8.65546 10.0179H7.19942C7.06452 10.0179 6.95508 10.1274 6.95508 10.2623Z" fill="white" fill-opacity="0.7"/>
</g>
<defs>
<clipPath id="clip0_3310_7480">
<rect width="18" height="18" fill="white"/>
</clipPath>
</defs>
</svg>
