<svg width="20" height="20" viewBox="0 0 20 20" fill="none" xmlns="http://www.w3.org/2000/svg">
<path d="M8.20032 4.55516L9.45167 3.30387V13.2255C9.45167 13.76 9.88496 14.1933 10.4194 14.1933C10.9539 14.1933 11.3872 13.76 11.3872 13.2255V3.30394L12.6384 4.55516C12.8273 4.74413 13.075 4.83864 13.3226 4.83864C13.5703 4.83864 13.818 4.74419 14.0069 4.55516C14.3848 4.17723 14.3848 3.56452 14.0069 3.18658L11.1039 0.283484C11.0812 0.260839 11.0573 0.239419 11.0326 0.219161C11.0219 0.210387 11.0106 0.202774 10.9997 0.194581C10.9854 0.183806 10.9714 0.172839 10.9565 0.162839C10.9432 0.153871 10.9293 0.146129 10.9155 0.137935C10.9022 0.129871 10.8891 0.121484 10.8753 0.114129C10.8613 0.106645 10.847 0.100323 10.8326 0.0936129C10.8183 0.0867742 10.8042 0.0796774 10.7894 0.0735484C10.7756 0.0678064 10.7615 0.0632258 10.7475 0.0581935C10.7318 0.0525161 10.7163 0.0464516 10.7001 0.0416129C10.6861 0.0374194 10.672 0.0343226 10.658 0.0307742C10.6415 0.0265806 10.6251 0.0219355 10.6083 0.0186452C10.5921 0.0154839 10.5758 0.0136129 10.5595 0.0112258C10.5446 0.00909677 10.5299 0.00625806 10.5147 0.00477419C10.4849 0.00187097 10.455 0.000451613 10.4251 0.000258064L10.4193 0L10.4137 0.000258064C10.3837 0.000387097 10.3538 0.00187097 10.3239 0.00477419C10.3091 0.00625806 10.2947 0.00903226 10.2801 0.0110968C10.2634 0.0134839 10.2468 0.0154194 10.2303 0.0187097C10.2139 0.0219355 10.1981 0.0264516 10.182 0.0305161C10.1674 0.0341935 10.1528 0.0373548 10.1384 0.0416774C10.1228 0.0463871 10.1077 0.0522581 10.0924 0.0577419C10.0779 0.0629677 10.0633 0.0677419 10.049 0.0736774C10.0348 0.0795484 10.0212 0.0864516 10.0074 0.0929677C9.99258 0.0999355 9.97761 0.106581 9.96303 0.114323C9.94987 0.121355 9.93748 0.129355 9.92464 0.137032C9.91025 0.145548 9.8958 0.153677 9.8818 0.163032C9.8678 0.172387 9.85471 0.182839 9.84122 0.192839C9.82935 0.201677 9.81729 0.209871 9.8058 0.219355C9.78225 0.238645 9.75974 0.259097 9.73812 0.280452L9.7349 0.283355L6.83155 3.18658C6.45361 3.56452 6.45361 4.17723 6.83155 4.55516C7.20968 4.9331 7.82245 4.93297 8.20032 4.55516Z" fill="white"/>
<path d="M16.871 6.45166H14.2903C13.7559 6.45166 13.3226 6.88495 13.3226 7.4194C13.3226 7.95385 13.7559 8.38714 14.2903 8.38714H15.9032V18.0646H4.93548V8.38714H6.54839C7.08284 8.38714 7.51613 7.95385 7.51613 7.4194C7.51613 6.88495 7.08284 6.45166 6.54839 6.45166H3.96774C3.43329 6.45166 3 6.88495 3 7.4194V19.0323C3 19.5667 3.43329 20 3.96774 20H16.871C17.4054 20 17.8387 19.5667 17.8387 19.0323V7.4194C17.8387 6.88495 17.4054 6.45166 16.871 6.45166Z" fill="white"/>
</svg>
