<svg width="20" height="20" viewBox="0 0 20 20" fill="none" xmlns="http://www.w3.org/2000/svg">
<g clip-path="url(#clip0_3167_4430)">
<path d="M10.2398 12.2218C11.4671 12.2218 12.4621 11.2269 12.4621 9.99958C12.4621 8.77227 11.4671 7.77734 10.2398 7.77734C9.01251 7.77734 8.01758 8.77227 8.01758 9.99958C8.01758 11.2269 9.01251 12.2218 10.2398 12.2218Z" fill="white" fill-opacity="0.7"/>
<path d="M10.2398 20.0001C11.4671 20.0001 12.4621 19.0052 12.4621 17.7779C12.4621 16.5506 11.4671 15.5557 10.2398 15.5557C9.01251 15.5557 8.01758 16.5506 8.01758 17.7779C8.01758 19.0052 9.01251 20.0001 10.2398 20.0001Z" fill="white" fill-opacity="0.7"/>
<path d="M10.2398 4.44448C11.4671 4.44448 12.4621 3.44955 12.4621 2.22224C12.4621 0.994931 11.4671 0 10.2398 0C9.01251 0 8.01758 0.994931 8.01758 2.22224C8.01758 3.44955 9.01251 4.44448 10.2398 4.44448Z" fill="white" fill-opacity="0.7"/>
</g>
<defs>
<clipPath id="clip0_3167_4430">
<rect width="20" height="20" fill="white"/>
</clipPath>
</defs>
</svg>
