<svg width="18" height="20" viewBox="0 0 18 20" fill="none" xmlns="http://www.w3.org/2000/svg">
<path d="M17.2006 5.09024V18.0762C17.2006 19.1369 16.3375 20 15.2767 20H6.49924C5.43845 20 4.5754 19.1369 4.5754 18.0762V9.63246C4.84982 9.67811 5.12977 9.70772 5.41707 9.70772C5.62081 9.70772 5.82078 9.69258 6.01829 9.66922V18.0762C6.01829 18.3413 6.23399 18.5571 6.49924 18.5571H15.2767C15.5419 18.5571 15.7577 18.3413 15.7577 18.0762V5.09024C15.7577 4.82499 15.5418 4.60929 15.2767 4.60929H10.5155C10.5155 4.10768 10.4402 3.62423 10.3051 3.16644H15.2767C16.3375 3.1664 17.2006 4.02945 17.2006 5.09024ZM5.33673 9.07471C2.83472 9.07471 0.799316 7.03931 0.799316 4.53742C0.799356 2.0354 2.83472 0 5.33673 0C7.83867 0 9.87415 2.0354 9.87415 4.53742C9.87415 7.03931 7.83867 9.07471 5.33673 9.07471ZM5.33673 8.11277C7.30813 8.11277 8.91213 6.50905 8.91213 4.53742C8.91213 2.56566 7.30837 0.961939 5.33673 0.961939C3.36502 0.961939 1.76126 2.56566 1.76126 4.53742C1.76126 6.50905 3.36526 8.11277 5.33673 8.11277ZM8.05798 5.01841C8.32347 5.01841 8.53893 4.80294 8.53893 4.53746C8.53893 4.27197 8.32347 4.05651 8.05798 4.05651H5.81768V2.16847C5.81768 1.90298 5.60222 1.68752 5.33673 1.68752C5.07125 1.68752 4.85578 1.90298 4.85578 2.16847V4.53746C4.85578 4.80294 5.07125 5.01841 5.33673 5.01841H8.05798ZM13.6091 8.91797H8.39872C8.13324 8.91797 7.91777 9.13344 7.91777 9.39892C7.91777 9.66445 8.13324 9.87987 8.39872 9.87987H13.6091C13.8747 9.87987 14.0901 9.66441 14.0901 9.39892C14.0901 9.13344 13.8747 8.91797 13.6091 8.91797ZM13.6176 11.8354H8.40718C8.1417 11.8354 7.92623 12.0508 7.92623 12.3164C7.92623 12.582 8.1417 12.7973 8.40718 12.7973H13.6176C13.8832 12.7973 14.0985 12.582 14.0985 12.3164C14.0985 12.0508 13.8834 11.8354 13.6176 11.8354ZM13.6176 14.8736H8.40718C8.1417 14.8736 7.92623 15.0892 7.92623 15.3546C7.92623 15.6202 8.1417 15.8355 8.40718 15.8355H13.6176C13.8832 15.8355 14.0985 15.6201 14.0985 15.3546C14.0985 15.0891 13.8834 14.8736 13.6176 14.8736Z" fill="white"/>
</svg>
